<svg width="32" height="32" viewBox="0 0 32 32" fill="none" xmlns="http://www.w3.org/2000/svg">
<mask id="mask0" mask-type="alpha" maskUnits="userSpaceOnUse" x="0" y="0" width="32" height="32">
<circle cx="16" cy="16" r="16" fill="#C4C4C4"/>
<path d="M17.3192 17.8526C19.5789 17.3217 20.9804 15.0594 20.4496 12.7997L12.2664 14.7222C12.4018 15.2987 12.65 15.8194 12.982 16.2664C13.9514 17.5713 15.636 18.248 17.3192 17.8526Z" fill="white"/>
</mask>
<g mask="url(#mask0)">
<path fill-rule="evenodd" clip-rule="evenodd" d="M21.9614 18.9488C21.9475 18.9487 21.9336 18.9487 21.9196 18.9487C20.3285 20.5005 18.1678 21.463 15.7714 21.463C13.375 21.463 11.2142 20.5005 9.62317 18.9487C9.60919 18.9487 9.59525 18.9487 9.58133 18.9488C4.46981 18.9811 3.19995 24.9341 3.19995 30.0862C3.19995 32.954 5.08567 35.2916 7.38388 35.2916H24.1589C26.4571 35.2916 28.3428 32.954 28.3428 30.0862C28.3428 24.9341 27.0729 18.9811 21.9614 18.9488ZM10.1299 17.6687C8.94707 16.3368 8.22852 14.5834 8.22852 12.663C8.22852 8.49869 11.6071 5.12012 15.7714 5.12012C19.9357 5.12012 23.3142 8.49869 23.3142 12.663C23.3142 14.5834 22.5957 16.3368 21.4129 17.6687C21.2952 17.8012 21.173 17.9295 21.0464 18.0534C19.6861 19.3848 17.8242 20.2058 15.7714 20.2058C13.7186 20.2058 11.8567 19.3848 10.4964 18.0534C10.3698 17.9295 10.2475 17.8012 10.1299 17.6687Z" fill="#265FB1"/>
<path d="M21.9614 18.9488L21.9196 18.9487C20.3285 20.5005 18.1678 21.463 15.7714 21.463C13.375 21.463 11.2142 20.5005 9.62317 18.9487L9.58133 18.9488C4.46981 18.9811 3.19995 24.9341 3.19995 30.0862C3.19995 32.954 5.08567 35.2916 7.38388 35.2916H24.1589C26.4571 35.2916 28.3428 32.954 28.3428 30.0862C28.3428 24.9341 27.0729 18.9811 21.9614 18.9488Z" fill="#265FB1"/>
<path d="M8.22852 12.663C8.22852 14.5834 8.94707 16.3368 10.1299 17.6687C10.2475 17.8012 10.3698 17.9295 10.4964 18.0534C11.8567 19.3848 13.7186 20.2058 15.7714 20.2058C17.8242 20.2058 19.6861 19.3848 21.0464 18.0534C21.173 17.9295 21.2952 17.8012 21.4129 17.6687C22.5957 16.3368 23.3142 14.5834 23.3142 12.663C23.3142 8.49869 19.9357 5.12012 15.7714 5.12012C11.6071 5.12012 8.22852 8.49869 8.22852 12.663Z" fill="#265FB1"/>
<path d="M17.0834 18.0977C19.3431 17.5668 20.7446 15.3046 20.2137 13.0448L12.0305 14.9673C12.166 15.5438 12.4141 16.0645 12.7462 16.5115C13.7156 17.8164 15.4002 18.4931 17.0834 18.0977Z" fill="white"/>
</g>
<circle cx="16" cy="16" r="15" stroke="#265FB1" stroke-width="2"/>
</svg>
